<svg xmlns="http://www.w3.org/2000/svg" xmlns:xlink="http://www.w3.org/1999/xlink">   
    <symbol>
        <g id="hpa-cart">
            <path d="M33.692,15.656,17.859,2.928a.815.815,0,0,0-1.017,0L1.01,15.656a.791.791,0,0,0-.3.569.8.8,0,0,0,.21.61l3.145,3.47a.812.812,0,0,0,.6.264.8.8,0,0,0,.495-.176l.264-.224V31.137a.817.817,0,0,0,.84.786h22.17a.817.817,0,0,0,.84-.786V20.17l.264.224a.8.8,0,0,0,1.1-.088l3.145-3.47a.8.8,0,0,0,.2-.61A.81.81,0,0,0,33.692,15.656ZM19.859,30.3H14.843V21.621h5.015Zm7.794,0H21.485V20.841a.857.857,0,0,0-.827-.847H14.043a.857.857,0,0,0-.827.847V30.3H7.049V18.862l10.3-8.255,10.3,8.255Zm2.3-11.651L17.859,8.933a.8.8,0,0,0-.508-.176.841.841,0,0,0-.508.176L4.751,18.645,2.7,16.382,17.351,4.609,32,16.382Z" transform="translate(-0.709 -2.75)" fill="#000"/>
        </g>

        <g id="icon-facebook">
            <g transform="translate(8.751 17.5)"><path d="M14.306,5.811h3.2V.246A41.259,41.259,0,0,0,12.846,0C8.24,0,5.084,2.9,5.084,8.224v4.9H0v6.221H5.084V35h6.233V19.348h4.878l.774-6.221H11.315V8.84c0-1.8.486-3.029,2.991-3.029Z" transform="translate(-8.751 -17.5)"/></g>
        </g>

        <g id="icon-instagram">
            <g transform="translate(17.497 17.5)"><g transform="translate(-17.497 -17.5)"><path d="M35.353,10.29a12.789,12.789,0,0,0-.814-4.246A8.966,8.966,0,0,0,29.418.923,12.822,12.822,0,0,0,25.172.11C23.3.021,22.7,0,17.952,0s-5.347.021-7.213.1A12.793,12.793,0,0,0,6.493.916a8.54,8.54,0,0,0-3.1,2.024,8.617,8.617,0,0,0-2.017,3.1,12.823,12.823,0,0,0-.814,4.246c-.089,1.874-.11,2.468-.11,7.22s.021,5.347.1,7.213a12.788,12.788,0,0,0,.814,4.246,8.964,8.964,0,0,0,5.121,5.121,12.824,12.824,0,0,0,4.246.814c1.866.082,2.461.1,7.213.1s5.347-.02,7.213-.1a12.786,12.786,0,0,0,4.246-.814,8.952,8.952,0,0,0,5.121-5.121,12.832,12.832,0,0,0,.814-4.246c.082-1.867.1-2.461.1-7.213s-.007-5.347-.089-7.213ZM32.2,24.58a9.593,9.593,0,0,1-.6,3.248,5.806,5.806,0,0,1-3.323,3.323,9.627,9.627,0,0,1-3.248.6c-1.846.082-2.4.1-7.07.1s-5.231-.02-7.07-.1a9.588,9.588,0,0,1-3.248-.6,5.386,5.386,0,0,1-2.01-1.306,5.442,5.442,0,0,1-1.306-2.01,9.629,9.629,0,0,1-.6-3.248c-.082-1.846-.1-2.4-.1-7.07s.02-5.231.1-7.07a9.588,9.588,0,0,1,.6-3.248,5.32,5.32,0,0,1,1.313-2.01,5.433,5.433,0,0,1,2.01-1.306,9.634,9.634,0,0,1,3.248-.6c1.846-.082,2.4-.1,7.07-.1s5.231.021,7.07.1a9.593,9.593,0,0,1,3.248.6,5.382,5.382,0,0,1,2.01,1.306A5.44,5.44,0,0,1,31.6,7.2a9.632,9.632,0,0,1,.6,3.248c.082,1.846.1,2.4.1,7.07s-.021,5.217-.1,7.063Zm0,0" transform="translate(-0.449 0)"/><path d="M133.94,124.5a8.991,8.991,0,1,0,8.991,8.991A8.993,8.993,0,0,0,133.94,124.5Zm0,14.823a5.832,5.832,0,1,1,5.832-5.832,5.833,5.833,0,0,1-5.832,5.832Zm0,0" transform="translate(-116.437 -115.988)"/><path d="M366.648,90.7a2.1,2.1,0,1,1-2.1-2.1A2.1,2.1,0,0,1,366.648,90.7Zm0,0" transform="translate(-337.699 -82.544)"/></g></g>
        </g>
    </symbol>    
</svg>
